PathFileType	4	(X/Y/Z)	C:\Users\Basilio\Documents\Thesis Gigler\squatting_fais\c3dfiles\076\SLS_back_pre5\markers_experimental.trc
DataRate	CameraRate	NumFrames	NumMarkers	Units	OrigDataRate	OrigDataStartFrame	OrigNumFrames
200.000000	200.000000	4	61	mm	200.000000	789	1578
Frame#	Time	FHD			LBHD			RBHD			C7			T10			CLAV			LSHO			LUUPA			LMUPA			LDUPA			LLEP			LMEP			LRAD			LUL			LRFIN			RSHO			RUPA1			RMUPA			RDUPA			RLEP			RMEP			RRAD			RUL			RUFIN			LASI			RASI			USACR			LSACR			RSACR			LTHI1			LTHI2			LTHI3			LTHI4			LLFC			LMFC			LTIB1			LTIB2			LTIB3			LTIB4			LLMAL			LMMAL			LHEE			LMT1			LMT2			LMT5			RTHI			RTHI2			RTHI3			RTHI4			RLFC			RMFC			RTIB1			RTIB2			RTIB3			RTIB4			RLMAL			RMMAL			RHEE			RMT1			RMT2			RMT5			
		X1	Y1	Z1	X2	Y2	Z2	X3	Y3	Z3	X4	Y4	Z4	X5	Y5	Z5	X6	Y6	Z6	X7	Y7	Z7	X8	Y8	Z8	X9	Y9	Z9	X10	Y10	Z10	X11	Y11	Z11	X12	Y12	Z12	X13	Y13	Z13	X14	Y14	Z14	X15	Y15	Z15	X16	Y16	Z16	X17	Y17	Z17	X18	Y18	Z18	X19	Y19	Z19	X20	Y20	Z20	X21	Y21	Z21	X22	Y22	Z22	X23	Y23	Z23	X24	Y24	Z24	X25	Y25	Z25	X26	Y26	Z26	X27	Y27	Z27	X28	Y28	Z28	X29	Y29	Z29	X30	Y30	Z30	X31	Y31	Z31	X32	Y32	Z32	X33	Y33	Z33	X34	Y34	Z34	X35	Y35	Z35	X36	Y36	Z36	X37	Y37	Z37	X38	Y38	Z38	X39	Y39	Z39	X40	Y40	Z40	X41	Y41	Z41	X42	Y42	Z42	X43	Y43	Z43	X44	Y44	Z44	X45	Y45	Z45	X46	Y46	Z46	X47	Y47	Z47	X48	Y48	Z48	X49	Y49	Z49	X50	Y50	Z50	X51	Y51	Z51	X52	Y52	Z52	X53	Y53	Z53	X54	Y54	Z54	X55	Y55	Z55	X56	Y56	Z56	X57	Y57	Z57	X58	Y58	Z58	X59	Y59	Z59	X60	Y60	Z60	X61	Y61	Z61	

790	3.945	29.84294509887696	1219.97998046875	-1053.070434570313	-119.9577255249024	1175.566040039063	-1151.537231445313	-106.9071502685547	1181.252319335938	-999.643981933594	-184.4805755615235	1115.36865234375	-1060.691650390625	-416.4161682128907	914.9956054687502	-1004.150634765625	-122.130973815918	979.1018676757815	-1064.74658203125	-147.3846435546875	1064.61572265625	-1203.8818359375	-45.62225723266602	998.8159179687502	-1314.529296875	-3.996702909469605	1003.723876953125	-1289.659790039063	11.13265037536621	979.193542480469	-1344.386474609375	52.435848236084	949.221130371094	-1369.234497070313	57.47034454345705	885.1138305664065	-1322.525634765625	304.8011169433594	936.860046386719	-1360.44287109375	293.3294677734376	937.528747558594	-1425.286376953125	385.5822143554689	950.743103027344	-1374.378173828125	-122.2756500244141	1067.61376953125	-931.937194824219	-11.37067890167237	999.1513671875002	-824.294128417969	26.65169525146485	1020.389526367188	-847.266540527344	54.23919677734376	975.941345214844	-814.434753417969	120.4176864624024	964.3192138671877	-813.420349121094	114.5805206298828	908.6921997070315	-866.4097290039065	363.6066894531251	938.8734130859377	-867.4261474609377	355.0927124023438	936.269958496094	-800.8728027343752	438.1203613281251	949.8904418945315	-852.1044921875002	-394.3074951171876	697.0769042968751	-1108.564697265625	-385.5459899902345	665.3511962890626	-897.1817016601565	-497.4495239257814	826.9479980468752	-985.1439208984377	-523.8662109375001	810.2858886718752	-1013.168640136719	-518.5738525390626	801.8728027343752	-956.805847167969	-427.597381591797	632.1195678710939	-1189.6181640625	-349.0378112792969	603.4209594726564	-1187.76123046875	-318.7424316406251	634.3463745117189	-1164.465576171875	-329.6725158691407	544.4777832031251	-1185.30712890625	-219.3211212158204	433.7567749023439	-1157.978515625	-203.8684844970704	446.5006103515626	-1048.15380859375	-217.0729522705079	307.1049194335938	-1058.380249023438	-258.4381713867188	249.829330444336	-1112.85791015625	-230.6524047851563	252.6110992431641	-1073.841186523438	-277.8264160156251	199.3090362548829	-1028.105346679688	-379.1910400390626	105.6693496704102	-1060.205078125	-346.8487243652344	122.6188354492188	-981.8743896484377	-440.5622863769532	96.92265319824222	-1008.130981445313	-239.4913482666016	52.67942047119142	-993.6745605468752	-234.5987854003907	49.14797210693361	-1032.513427734375	-259.8073425292969	43.09411621093751	-1081.853149414063	-466.6653137207032	452.6397399902345	-833.102966308594	-425.4237365722657	397.0193786621095	-837.715759277344	-393.1023559570314	399.945281982422	-850.2556762695315	-456.3525695800782	321.1769714355469	-858.1008300781252	-459.2760314941407	282.5286254882813	-870.7786254882815	-447.0516662597657	279.1022033691407	-987.591247558594	-567.9125976562501	231.5901336669922	-908.3803710937502	-646.0522460937501	304.3370666503907	-887.6191406250002	-649.5913085937501	260.5592041015626	-901.8679809570315	-691.2470703125001	254.3223114013672	-943.929626464844	-827.806823730469	320.0602111816407	-921.872009277344	-802.877136230469	304.9979858398438	-1003.197875976563	-836.0838623046877	385.1373901367189	-960.710388183594	-880.4183349609377	193.2911682128907	-1020.961791992188	-886.507751464844	178.8062133789063	-976.3526611328127	-910.2167968750002	202.4214782714844	-923.6718750000002	
791	3.95	29.70398521423341	1220.472045898438	-1053.178466796875	-120.3155822753907	1176.0625	-1150.888061523438	-107.04638671875	1181.615356445313	-999.773620605469	-184.5721740722657	1115.666381835938	-1060.7333984375	-416.3444213867189	915.2767333984377	-1004.1494140625	-122.0825271606446	979.481872558594	-1064.825073242188	-147.4569091796875	1064.947875976563	-1203.958618164063	-45.82571029663087	999.3626708984377	-1314.679931640625	-4.060571670532227	1004.141479492188	-1289.757446289063	11.04166030883789	979.663757324219	-1344.483764648438	52.41106033325197	949.6728515625002	-1369.218017578125	57.5229835510254	885.6151123046877	-1322.311157226563	304.7393798828126	937.569274902344	-1360.5234375	293.4293518066407	938.2710571289065	-1425.406127929688	385.5502319335939	951.4986572265627	-1374.398559570313	-122.3527526855469	1067.964599609375	-932.053405761719	-11.44731712341309	999.605895996094	-824.4016113281252	26.60620689392091	1020.628295898438	-847.3211059570315	54.25042724609376	976.525329589844	-814.547790527344	120.4415283203125	964.9038696289065	-813.5352172851565	114.6177749633789	909.3204345703127	-866.546569824219	363.5923156738282	939.5406494140627	-867.4112548828127	355.1447143554688	937.1859130859377	-800.8438720703127	438.2416076660157	950.6724243164065	-852.2569580078127	-394.2760314941407	697.3050537109376	-1108.60498046875	-385.3841857910157	665.4791259765626	-897.2276611328127	-497.3895568847657	827.1752929687502	-985.0985107421877	-523.7747192382814	810.4635009765627	-1013.129028320313	-518.4707641601564	802.0816040039065	-956.747009277344	-427.6027221679689	632.3029785156251	-1189.597534179688	-349.0949707031251	603.4904785156251	-1187.880126953125	-318.7478332519532	634.4314575195314	-1164.477416992188	-329.8209533691407	544.6046752929689	-1185.370727539063	-219.3111114501954	433.7271728515626	-1158.065551757813	-203.8679809570313	446.5445861816407	-1048.192749023438	-217.1060485839844	307.1307067871094	-1058.512817382813	-258.5131835937501	249.8946228027344	-1112.935546875	-230.6951293945313	252.6388092041016	-1073.896362304688	-277.7938842773438	199.3102722167969	-1028.152099609375	-379.0931701660157	105.5727920532227	-1060.18505859375	-346.8637390136719	122.5791244506836	-981.912780761719	-440.590057373047	96.90496826171878	-1008.104370117188	-239.4919891357422	52.67505264282228	-993.677673339844	-234.5964813232422	49.11351394653322	-1032.515869140625	-259.8642272949219	43.0832748413086	-1081.8583984375	-466.5590209960939	452.7830810546876	-833.0408935546877	-425.3787231445314	397.115692138672	-837.6543579101565	-393.1119384765626	400.0639953613282	-850.1514892578127	-456.3064270019532	321.3409423828126	-857.9546508789065	-459.2982482910157	282.7317199707032	-870.7408447265627	-447.0745544433595	279.1717224121094	-987.3802490234377	-567.9774169921876	231.7487335205079	-908.1955566406252	-646.0823974609376	304.5363464355469	-887.4553833007815	-649.6404418945314	260.8047485351563	-901.840515136719	-691.2769165039064	254.5063171386719	-943.7994384765627	-827.8460693359377	320.2533264160157	-921.7341308593752	-802.9287109375002	305.2159729003907	-1003.04248046875	-836.1041259765627	385.2999572753907	-960.6030273437502	-880.4700927734377	193.4391326904297	-1020.755187988281	-886.5180664062502	179.0760040283203	-976.1488037109377	-910.2266845703127	202.6254272460938	-923.4619750976565	
792	3.955	29.54218864440919	1220.97412109375	-1053.337158203125	-120.1454620361328	1176.221313476563	-1151.616943359375	-107.0867156982422	1181.955444335938	-999.9449462890627	-184.686767578125	1115.954711914063	-1060.865112304688	-416.3205566406251	915.5133056640627	-1004.150146484375	-122.1110610961914	979.8135986328127	-1064.880737304688	-147.6235656738282	1065.2421875	-1204.024169921875	-45.99427032470704	999.844421386719	-1314.793090820313	-4.232559204101563	1004.692565917969	-1289.800170898438	10.92852210998535	980.0908203125002	-1344.575927734375	52.16345596313478	950.2295532226565	-1369.166625976563	57.47478103637697	886.1678466796877	-1322.5263671875	304.6549682617188	938.6182250976565	-1360.407592773438	293.1965942382813	938.9030761718752	-1425.335815429688	385.4009094238282	952.162292480469	-1374.352416992188	-122.3905639648438	1068.390502929688	-932.1043701171877	-11.47878456115723	1000.017761230469	-824.476257324219	26.48908233642579	1021.084106445313	-847.3123779296877	54.25036239624025	977.0686645507815	-814.548522949219	120.4486236572266	965.468688964844	-813.6674804687502	114.6143875122071	909.8729248046877	-866.7353515625002	363.6321716308594	940.3741455078127	-867.496276855469	355.2283325195313	937.8889770507815	-801.0169067382815	438.2457885742189	951.4479980468752	-852.4787597656252	-394.108367919922	697.6726074218751	-1108.641479492188	-385.2176208496095	665.7041015625001	-897.2951660156252	-497.3215942382814	827.376892089844	-985.0403442382815	-523.7048950195314	810.6649169921877	-1013.06103515625	-518.3647460937501	802.2163085937502	-956.7318115234377	-427.5727844238282	632.4514770507814	-1189.607666015625	-349.0882568359376	603.6298217773439	-1187.939819335938	-318.7550659179688	634.4930419921876	-1164.540649414063	-329.6659545898438	544.6320190429689	-1185.424926757813	-219.5494995117188	433.7772521972657	-1158.141967773438	-203.9119873046876	446.5410461425782	-1048.318725585938	-217.1842498779297	307.1267395019532	-1058.635498046875	-258.5709228515626	249.8675384521485	-1113.052001953125	-230.732162475586	252.6051788330079	-1074.010375976563	-277.8050231933594	199.3223876953126	-1028.212768554688	-379.1456298828126	105.6446609497071	-1060.329833984375	-346.8043518066407	122.6026153564453	-981.9595947265627	-440.588104248047	96.91432952880862	-1008.138732910156	-239.4765777587891	52.68027877807619	-993.7149047851565	-234.6694488525391	49.16715240478517	-1032.527587890625	-259.8336181640626	43.09146881103516	-1081.876953125	-466.5242614746095	452.9534606933595	-832.9549560546877	-425.3564453125001	397.2981872558595	-837.6325683593752	-393.0678100585939	400.2746582031251	-850.0833740234377	-456.3131713867189	321.5857238769532	-857.8178710937502	-459.2800292968751	282.9604187011719	-870.6384277343752	-447.0655517578126	279.2926940917969	-987.2334594726565	-568.1481323242189	231.9510192871094	-907.9636230468752	-646.0734863281251	304.7712097167969	-887.3264770507815	-649.6651000976564	260.9681396484376	-901.7056884765627	-691.3656005859376	254.6441650390626	-943.6441040039065	-827.8341064453127	320.5284423828126	-921.5808715820315	-803.0621337890627	305.4208984375001	-1002.902160644531	-836.0709228515627	385.4810485839845	-960.545593261719	-880.5283203125002	193.6207275390626	-1020.573486328125	-886.5917968750002	179.2546081542969	-975.9282836914065	-910.276550292969	202.8487091064454	-923.186950683594	
793	3.96	29.4289894104004	1221.343627929688	-1053.33642578125	-120.3307647705078	1176.655639648438	-1151.659423828125	-107.1720886230469	1182.347900390625	-1000.050659179688	-184.7147979736328	1116.366943359375	-1060.977294921875	-416.280242919922	915.7269287109377	-1004.16015625	-122.1167831420899	980.1294555664065	-1064.890258789063	-147.6475830078125	1065.556396484375	-1204.099853515625	-46.1528663635254	1000.253784179688	-1314.897705078125	-4.355350971221925	1005.164123535156	-1289.905639648438	10.66003894805908	980.521911621094	-1344.678955078125	52.3451614379883	950.684509277344	-1369.223510742188	57.7553176879883	886.689880371094	-1322.447021484375	304.7665710449219	939.2481079101565	-1360.335693359375	293.2816467285157	939.6820068359377	-1425.41552734375	385.4238281250001	952.9355468750002	-1374.200927734375	-122.4843826293946	1068.884765625	-932.2775878906252	-11.51427459716797	1000.445678710938	-824.5546875000002	26.39129257202149	1021.5126953125	-847.5111083984377	54.27367019653322	977.486511230469	-814.6367797851565	120.4602661132813	965.9238281250002	-813.7114868164065	114.7105560302735	910.3513183593752	-866.7957763671877	363.6327514648438	941.2727661132815	-867.7337036132815	355.2311401367188	938.651062011719	-801.0598144531252	438.2556457519532	952.2761230468752	-852.5779418945315	-394.0251770019532	697.9592285156251	-1108.682739257813	-385.0538330078126	665.8878173828126	-897.343444824219	-497.2515258789064	827.591247558594	-985.0207519531252	-523.5706176757814	810.927673339844	-1013.015930175781	-518.2609252929689	802.4983520507815	-956.7279052734377	-427.547088623047	632.6353149414064	-1189.655395507813	-349.1694335937501	603.7554931640626	-1188.01806640625	-318.7654418945313	634.5755615234376	-1164.624145507813	-329.6080322265626	544.7416992187501	-1185.446044921875	-219.6066284179688	433.8105468750001	-1158.225463867188	-203.9232177734376	446.5502929687501	-1048.3623046875	-217.2185821533204	307.1499938964844	-1058.701538085938	-258.6318054199219	249.9381713867188	-1113.14013671875	-230.7698211669922	252.6756591796876	-1074.081787109375	-277.8506469726563	199.3513793945313	-1028.33642578125	-379.0908813476563	105.6003952026367	-1060.278686523438	-346.7881774902344	122.5837478637696	-981.959411621094	-440.5891113281251	96.90002441406253	-1008.137939453125	-239.4771881103516	52.72597885131837	-993.719177246094	-234.6529998779297	49.1794891357422	-1032.623779296875	-259.7967529296876	43.09406661987305	-1081.897705078125	-466.4301757812501	453.1713256835939	-832.9012451171877	-425.3005981445314	397.5017089843751	-837.5339355468752	-393.0164489746095	400.4932556152345	-849.9866333007815	-456.2994995117189	321.7803649902344	-857.6367797851565	-459.2974853515626	283.1481933593751	-870.474548339844	-447.0842895507814	279.4763183593751	-987.0908813476565	-568.0780029296876	232.0940551757813	-907.7082519531252	-646.0371093750001	305.0195312500001	-887.1499633789065	-649.7421264648439	261.1367187500001	-901.642761230469	-691.4285888671876	254.9035644531251	-943.4524536132815	-827.8728027343752	320.7546997070313	-921.4497680664065	-802.9821777343752	305.5847167968751	-1002.764526367188	-836.0659179687502	385.6907958984376	-960.4686279296877	-880.5220947265627	193.7632751464844	-1020.315063476563	-886.6599731445315	179.4608459472657	-975.6929321289065	-910.348327636719	203.0222625732422	-922.9395141601565	
